<svg xmlns="http://www.w3.org/2000/svg" viewBox="0 0 512 512">
  <defs>
    <linearGradient id="bgGrad" x1="0%" y1="0%" x2="100%" y2="100%">
      <stop offset="0%" style="stop-color:#3b82f6"/>
      <stop offset="100%" style="stop-color:#1d4ed8"/>
    </linearGradient>
    <linearGradient id="innerGrad" x1="0%" y1="0%" x2="100%" y2="100%">
      <stop offset="0%" style="stop-color:#60a5fa"/>
      <stop offset="100%" style="stop-color:#3b82f6"/>
    </linearGradient>
  </defs>
  
  <!-- Background circle -->
  <circle cx="256" cy="256" r="240" fill="url(#bgGrad)" />
  
  <!-- Inner glow -->
  <circle cx="256" cy="256" r="200" fill="url(#innerGrad)" opacity="0.3" />
  
  <!-- Diamond shape (Grey logo) -->
  <path d="M256 80 L400 256 L256 432 L112 256 Z" 
        fill="none" 
        stroke="white" 
        stroke-width="24" 
        stroke-linejoin="round"/>
  
  <!-- Inner diamond -->
  <path d="M256 140 L360 256 L256 372 L152 256 Z" 
        fill="white" 
        opacity="0.9"/>
  
  <!-- GUI indicator - window icon -->
  <rect x="200" y="200" width="112" height="90" rx="8" fill="#1d4ed8"/>
  <rect x="200" y="200" width="112" height="24" rx="8" ry="8" fill="#3b82f6"/>
  <circle cx="214" cy="212" r="5" fill="#ef4444"/>
  <circle cx="230" cy="212" r="5" fill="#f59e0b"/>
  <circle cx="246" cy="212" r="5" fill="#10b981"/>
  
  <!-- Window content lines -->
  <rect x="210" y="235" width="50" height="6" rx="3" fill="white" opacity="0.8"/>
  <rect x="210" y="250" width="80" height="6" rx="3" fill="white" opacity="0.6"/>
  <rect x="210" y="265" width="65" height="6" rx="3" fill="white" opacity="0.6"/>
</svg>
